<svg width="148" height="148" viewBox="0 0 148 148" fill="none" xmlns="http://www.w3.org/2000/svg">
<g filter="url(#filter0_d_725_11102)">
<path d="M32 45C32 33.402 41.402 24 53 24H94.9961C106.594 24 115.996 33.402 115.996 45V86.9961C115.996 98.594 106.594 107.996 94.9961 107.996H53C41.402 107.996 32 98.594 32 86.9961V45Z" fill="white" fill-opacity="0.2" shape-rendering="crispEdges"/>
<path d="M86.2419 57.2428V51.9931C86.2419 51.529 86.0575 51.0839 85.7293 50.7557C85.4011 50.4275 84.956 50.2432 84.4919 50.2432H61.743C60.8148 50.2432 59.9246 50.6119 59.2682 51.2682C58.6119 51.9246 58.2432 52.8148 58.2432 53.743C58.2432 54.6712 58.6119 55.5614 59.2682 56.2178C59.9246 56.8741 60.8148 57.2428 61.743 57.2428H87.9918C88.4559 57.2428 88.901 57.4272 89.2292 57.7554C89.5573 58.0835 89.7417 58.5286 89.7417 58.9928V65.9924M89.7417 65.9924H84.4919C83.5637 65.9924 82.6735 66.3612 82.0172 67.0175C81.3608 67.6739 80.9921 68.564 80.9921 69.4923C80.9921 70.4205 81.3608 71.3107 82.0172 71.967C82.6735 72.6234 83.5637 72.9921 84.4919 72.9921H89.7417C90.2058 72.9921 90.6509 72.8077 90.9791 72.4796C91.3072 72.1514 91.4916 71.7063 91.4916 71.2422V67.7423C91.4916 67.2782 91.3072 66.8331 90.9791 66.505C90.6509 66.1768 90.2058 65.9924 89.7417 65.9924Z" stroke="white" stroke-width="3.49984" stroke-linecap="round" stroke-linejoin="round"/>
<path d="M58.2432 53.7432V78.242C58.2432 79.1702 58.6119 80.0604 59.2682 80.7168C59.9246 81.3731 60.8148 81.7419 61.743 81.7419H87.9918C88.4559 81.7419 88.901 81.5575 89.2291 81.2293C89.5573 80.9011 89.7417 80.456 89.7417 79.9919V72.9923" stroke="white" stroke-width="3.49984" stroke-linecap="round" stroke-linejoin="round"/>
<g opacity="0.01">
<g clip-path="url(#clip0_725_11102)">
<path d="M112.954 27.4972C112.956 27.4972 112.961 27.4971 112.968 27.4971C112.976 27.4971 112.985 27.4971 112.995 27.4971C113.005 27.4971 113.014 27.4971 113.022 27.4971C113.029 27.4971 113.034 27.4972 113.036 27.4972L113.08 27.4983C113.083 27.4984 113.091 27.4985 113.103 27.4985C113.114 27.4986 113.13 27.4986 113.146 27.4986L113.378 27.4988C113.387 27.4988 113.396 27.4989 113.402 27.4989C113.408 27.4989 113.412 27.499 113.412 27.499C113.412 27.4991 113.408 27.4991 113.402 27.4992C113.396 27.4992 113.387 27.4992 113.378 27.4992L113.146 27.4994C113.13 27.4994 113.114 27.4995 113.103 27.4995C113.091 27.4996 113.083 27.4997 113.08 27.4997L113.036 27.5008C113.034 27.5009 113.029 27.5009 113.022 27.5009C113.014 27.501 113.005 27.501 112.995 27.501C112.985 27.501 112.976 27.501 112.968 27.5009C112.961 27.5009 112.956 27.5009 112.954 27.5008L112.91 27.4997C112.907 27.4997 112.899 27.4996 112.887 27.4995C112.875 27.4995 112.86 27.4994 112.844 27.4994L112.612 27.4992C112.603 27.4992 112.594 27.4992 112.588 27.4992C112.582 27.4991 112.578 27.4991 112.578 27.499C112.578 27.499 112.582 27.4989 112.588 27.4989C112.594 27.4989 112.603 27.4988 112.612 27.4988L112.844 27.4986C112.86 27.4986 112.875 27.4986 112.887 27.4985C112.899 27.4985 112.907 27.4984 112.91 27.4983L112.954 27.4972Z" stroke="#FFDF20" stroke-width="0.000392135" stroke-linecap="round" stroke-linejoin="round"/>
<path d="M112.661 27.5008C112.707 27.5008 112.745 27.5006 112.745 27.5004C112.745 27.5002 112.707 27.5 112.661 27.5C112.615 27.5 112.578 27.5002 112.578 27.5004C112.578 27.5006 112.615 27.5008 112.661 27.5008Z" stroke="#FFDF20" stroke-width="0.000392135" stroke-linecap="round" stroke-linejoin="round"/>
</g>
</g>
</g>
<defs>
<filter id="filter0_d_725_11102" x="0" y="0" width="147.996" height="147.996" filterUnits="userSpaceOnUse" color-interpolation-filters="sRGB">
<feFlood flood-opacity="0" result="BackgroundImageFix"/>
<feColorMatrix in="SourceAlpha" type="matrix" values="0 0 0 0 0 0 0 0 0 0 0 0 0 0 0 0 0 0 127 0" result="hardAlpha"/>
<feOffset dy="8"/>
<feGaussianBlur stdDeviation="16"/>
<feComposite in2="hardAlpha" operator="out"/>
<feColorMatrix type="matrix" values="0 0 0 0 0 0 0 0 0 0 0 0 0 0 0 0 0 0 0.1 0"/>
<feBlend mode="normal" in2="BackgroundImageFix" result="effect1_dropShadow_725_11102"/>
<feBlend mode="normal" in="SourceGraphic" in2="effect1_dropShadow_725_11102" result="shape"/>
</filter>
<clipPath id="clip0_725_11102">
<rect width="1" height="0.00470561" fill="white" transform="translate(112.495 27.4966)"/>
</clipPath>
</defs>
</svg>
